# Blender 4.5.3 LTS
# www.blender.org
mtllib bullet.mtl
o Icosphere
v 0.209504 -0.717194 -0.802371
v 0.098809 0.010649 1.124215
v 0.006000 0.468778 -1.079799
v 1.028422 0.315017 0.129445
v -0.000000 1.123655 -0.000000
v 0.482287 -0.988384 0.253428
v -1.005028 -0.502516 -0.000000
v -0.889814 0.356723 0.520931
vn 0.2796 0.9449 0.1705
vn 0.5632 0.2786 0.7779
vn -0.7443 0.2531 -0.6181
vn -0.7622 0.0206 0.6470
vn -0.4398 -0.6573 -0.6121
vn 0.1853 -0.6901 -0.6995
vn 0.7211 -0.5906 0.3622
vn -0.5941 -0.6892 0.4147
vn 0.8207 -0.3727 0.4332
vn 0.5748 0.3665 -0.7316
vn -0.8615 0.3917 0.3232
vn 0.3346 0.6889 -0.6430
vt 0.727273 0.000000
vt 0.572377 0.139429
vt 0.809435 0.168881
vt 0.587013 0.280076
vt 0.237001 0.093477
vt 0.151765 0.234117
vt 0.341334 0.274305
vt 0.551556 0.139429
vt 0.272728 0.393651
vt 0.014940 0.289045
vt 0.089534 0.419556
vt 0.818182 0.393651
vt 0.893102 0.289045
vt 0.455640 0.420043
vt 0.849278 0.155078
vt 1.000000 0.157461
vt 0.932126 0.039899
s 0
f 6/1/1 1/2/1 7/3/1
f 1/2/2 3/4/2 7/3/2
f 6/5/3 2/6/3 4/7/3
f 1/8/4 4/7/4 3/4/4
f 2/6/5 5/9/5 4/7/5
f 8/10/6 5/11/6 2/6/6
f 3/4/7 5/12/7 8/13/7
f 4/7/8 5/14/8 3/4/8
f 7/3/9 3/4/9 8/13/9
f 7/15/10 8/13/10 2/16/10
f 6/5/11 4/7/11 1/8/11
f 6/17/12 7/15/12 2/16/12
