# Blender 4.5.3 LTS
# www.blender.org
mtllib lander.mtl
o Cube
v -1.000000 -0.165356 1.000000
v -0.053703 1.834644 0.053703
v -1.000000 -0.165356 -1.000000
v -0.053703 1.834644 -0.053703
v 1.000000 -0.165356 1.000000
v 0.053703 1.834644 0.053703
v 1.000000 -0.165356 -1.000000
v 0.053703 1.834644 -0.053703
v -1.000000 -0.460564 -1.000000
v -1.000000 -0.460564 1.000000
v 1.000000 -0.460564 -1.000000
v 1.000000 -0.460564 1.000000
v -0.425172 -1.208724 -0.425172
v -0.425172 -1.208724 0.425172
v 0.425172 -1.208724 -0.425172
v 0.425172 -1.208724 0.425172
vn -0.9039 0.4277 -0.0000
vn -0.0000 0.4277 -0.9039
vn 0.9039 0.4277 -0.0000
vn -0.0000 0.4277 0.9039
vn -0.0000 -0.0000 -1.0000
vn -0.0000 1.0000 -0.0000
vn -0.0000 -0.6093 0.7930
vn -1.0000 -0.0000 -0.0000
vn 1.0000 -0.0000 -0.0000
vn -0.0000 -0.0000 1.0000
vn -0.0000 -1.0000 -0.0000
vn -0.0000 -0.6093 -0.7930
vn 0.7930 -0.6093 -0.0000
vn -0.7930 -0.6093 -0.0000
vt 0.625000 0.000000
vt 0.375000 0.250000
vt 0.375000 0.000000
vt 0.625000 0.250000
vt 0.375000 0.500000
vt 0.625000 0.500000
vt 0.375000 0.750000
vt 0.625000 0.750000
vt 0.375000 1.000000
vt 0.875000 0.500000
vt 0.125000 0.750000
vt 0.125000 0.500000
vt 0.625000 1.000000
vt 0.875000 0.750000
s 0
f 2/1/1 3/2/1 1/3/1
f 4/4/2 7/5/2 3/2/2
f 8/6/3 5/7/3 7/5/3
f 6/8/4 1/9/4 5/7/4
f 7/5/5 9/2/5 3/2/5
f 4/10/6 6/8/6 8/6/6
f 10/9/7 16/7/7 12/7/7
f 3/2/8 10/3/8 1/3/8
f 5/7/9 11/5/9 7/5/9
f 1/9/10 12/7/10 5/7/10
f 15/5/11 14/11/11 13/12/11
f 11/5/12 13/2/12 9/2/12
f 12/7/13 15/5/13 11/5/13
f 9/2/14 14/3/14 10/3/14
f 2/1/1 4/4/1 3/2/1
f 4/4/2 8/6/2 7/5/2
f 8/6/3 6/8/3 5/7/3
f 6/8/4 2/13/4 1/9/4
f 7/5/5 11/5/5 9/2/5
f 4/10/6 2/14/6 6/8/6
f 10/9/7 14/9/7 16/7/7
f 3/2/8 9/2/8 10/3/8
f 5/7/9 12/7/9 11/5/9
f 1/9/10 10/9/10 12/7/10
f 15/5/11 16/7/11 14/11/11
f 11/5/12 15/5/12 13/2/12
f 12/7/13 16/7/13 15/5/13
f 9/2/14 13/2/14 14/3/14
