# Blender 4.5.3 LTS
# www.blender.org
mtllib roverConvex.mtl
o 17247_Mars_Exploratory_Rover_v1
v 0.000224 0.021207 0.004255
v -0.007924 -0.056091 0.004274
v -0.112969 0.461232 0.495658
v -0.113795 0.461120 0.023074
v -0.766422 0.429516 -0.241348
v -0.923611 0.460722 -0.116570
v -0.923656 0.428475 -0.116267
v -0.765243 0.461704 -0.241502
v -0.658204 1.149694 0.176476
v -0.764971 0.459959 0.761647
v -0.923732 0.428286 0.635428
v -0.923022 0.461476 0.636368
v -0.766630 0.430450 0.760904
v -0.993623 0.461385 0.386753
v -0.993783 0.428319 0.385539
v -0.993726 0.428323 0.133382
v -0.993675 0.461700 0.133430
v -0.251477 1.136231 0.333908
v -0.144353 1.120198 0.333735
v -0.144953 1.122221 0.185812
v -0.059431 -0.122154 0.511564
v -0.030101 -0.105479 0.512937
v -0.006211 -0.058806 0.514066
v 0.000243 0.021640 0.515048
v 0.006423 0.003295 0.490569
v -0.809043 -0.075433 0.505829
v -0.788329 -0.108047 0.510485
v -0.755465 -0.123903 0.509973
v -0.064258 -0.123465 0.008200
v -0.031339 -0.106525 0.006111
v -0.003007 -0.063493 0.029670
v 0.006312 0.003865 0.028509
v -0.809318 -0.072352 0.011642
v -0.790125 -0.106120 0.008978
v -0.759555 -0.122711 0.008777
vn -0.8208 0.0020 0.5712
vn -0.2619 -0.0939 0.9605
vn -0.1993 -0.0136 0.9798
vn -0.7743 -0.1036 0.6242
vn -0.2496 -0.0823 -0.9649
vn -0.8140 -0.1443 -0.5627
vn -0.7697 0.1501 -0.6205
vn -0.8989 0.4382 0.0007
vn -0.8425 0.4835 0.2377
vn -0.8425 0.4833 0.2381
vn -0.8424 0.4833 0.2382
vn 0.9576 0.2881 -0.0026
vn 0.1485 0.9888 0.0128
vn 0.8730 0.4877 0.0064
vn -0.4895 0.6070 0.6260
vn -0.4902 0.6068 0.6258
vn -0.4902 0.6059 0.6266
vn -0.8655 0.4373 -0.2441
vn -0.8655 0.4373 -0.2443
vn -0.8656 0.4368 -0.2447
vn 0.4048 -0.2203 -0.8875
vn 0.6814 -0.1905 -0.7067
vn -0.2897 -0.3940 0.8723
vn -0.6627 -0.3245 0.6749
vn -0.6633 -0.3177 0.6775
vn -0.1825 -0.4048 0.8960
vn 0.0545 0.9970 -0.0558
vn 0.0544 0.9970 -0.0552
vn 0.0571 0.9969 -0.0547
vn -0.6632 -0.3239 -0.6747
vn -0.6632 -0.3237 -0.6748
vn -0.3208 -0.3893 -0.8634
vn 0.0431 0.5138 -0.8568
vn 0.0433 0.5138 -0.8568
vn 0.0750 0.4917 0.8675
vn 0.0750 0.4914 0.8677
vn 0.0750 0.4918 0.8675
vn 0.3686 0.2385 0.8985
vn 0.3664 0.2384 0.8994
vn 0.6779 0.2057 0.7058
vn -0.1874 0.1555 -0.9699
vn -0.5396 0.4935 -0.6821
vn -0.0010 -0.4124 0.9110
vn 0.6774 0.2058 -0.7063
vn 0.6773 0.2051 -0.7065
vn 0.3690 0.1811 -0.9116
vn 0.3650 0.2381 -0.9000
vn 0.3740 0.1368 0.9173
vn 0.3760 0.1364 0.9165
vn 0.9878 0.0712 0.1388
vn 0.8062 0.0199 0.5914
vn -0.0012 -0.4126 -0.9109
vn 0.1156 -0.2818 0.9525
vn 0.1160 -0.2819 0.9524
vn 0.2243 -0.1381 0.9647
vn 0.4276 -0.0883 0.8997
vn 0.9867 0.0374 -0.1580
vn 0.7471 0.0409 -0.6634
vn 0.0965 -0.3048 -0.9475
vn 0.0967 -0.3048 -0.9475
vn 0.0968 -0.3048 -0.9475
vn -0.9897 -0.0001 0.1432
vn 0.9384 -0.2377 -0.2510
vn -0.9906 0.0017 -0.1367
vn -0.9837 -0.0650 -0.1676
vn -0.2561 0.6481 0.7172
vn -0.2554 0.6474 0.7181
vn -0.2558 0.6485 0.7169
vn -0.9915 -0.0000 0.1304
vn -0.9388 -0.3444 -0.0001
vn -0.9388 -0.3444 -0.0002
vn -0.9388 -0.3444 -0.0003
vn -0.9251 -0.2773 0.2593
vn -0.9251 -0.2774 0.2594
vn -0.9240 -0.2833 0.2567
vn 0.4576 -0.8892 0.0007
vn -0.9261 -0.2771 -0.2562
vn -0.2263 -0.4066 -0.8851
vn -0.0011 -1.0000 -0.0024
vn -0.0041 -0.9998 0.0175
vn -0.4770 -0.8789 0.0018
vn -0.8695 -0.4940 -0.0026
vn 0.9805 -0.1963 0.0084
vn 0.8355 -0.5496 -0.0009
vn -0.9385 -0.3454 -0.0017
vn -0.9385 -0.3453 -0.0016
vn 0.4943 -0.8693 -0.0025
vn 0.0025 -1.0000 0.0026
vn -0.0123 -0.9998 0.0143
vn -0.4345 -0.9006 -0.0019
vn -0.8442 -0.5360 0.0010
vn 0.9906 -0.1371 -0.0004
vn 0.8900 -0.4558 0.0103
vt 0.967450 0.960828
vt 0.502844 0.052818
vt 0.001998 0.003791
vt 0.971381 0.040457
vt 0.001817 -0.000409
vt 0.970524 0.031597
vt 0.265269 0.266452
vt 0.205980 0.222043
vt 0.000037 0.000725
vt 0.953747 0.969747
vt 0.918747 0.964766
vt 0.187500 0.981103
vt 0.920128 0.972913
vt 0.990685 0.966413
vt 0.074109 0.725236
vt 0.991645 0.975751
vt 0.120128 0.184286
vt 0.054242 0.050046
vt 0.478448 0.997775
vt 0.054188 0.039170
vt 0.003148 0.924514
vt 0.654014 0.946000
vt 0.669304 0.656948
vt 0.040556 0.051912
vt 0.000000 0.000000
vt 0.180579 0.120392
vt 0.435371 0.997372
vt 0.006617 0.970207
vt 1.008778 0.913621
vt 0.017701 0.997811
vt 0.068716 0.923312
vt 0.896215 0.007335
vt 0.745651 0.817183
vt 1.004051 0.118687
vt 0.055676 0.043849
vt 1.000000 0.963440
vt 0.840105 0.961201
vt 0.206824 0.000867
vt 0.382228 0.407211
vt 0.591360 0.394260
vt 0.505474 0.907779
vt 0.506284 0.997007
vt 0.134672 0.195671
vt 1.000000 0.666700
vt 0.680558 0.998762
vt 0.578389 0.997775
vt 0.536922 0.357966
vt 0.945494 0.973432
vt 0.943604 0.030097
vt 0.649787 0.419283
vt 1.000000 0.046403
vt 0.962319 0.021739
vt 0.908221 0.957598
vt 1.000027 0.043098
vt 0.939359 0.039580
vt 0.330696 0.885661
vt 0.243397 0.913621
vt 0.497274 0.835672
vt 0.851135 0.851135
vt 0.444952 0.977794
vt 0.671376 1.006217
vt 0.868807 0.031059
vt 0.963393 0.959300
vt 0.504882 0.973377
vt 0.968498 0.960694
vt 0.890308 0.890308
vt 0.441753 0.946000
s 1
f 12/1/1 13/2/2 10/3/3
f 13/2/2 12/1/1 11/4/4
f 5/5/5 7/6/6 6/7/7
s 0
f 9/8/8 17/9/8 14/10/8
f 12/1/9 9/8/10 14/10/11
s 1
f 20/11/12 18/12/13 19/13/14
s 0
f 12/14/15 10/15/16 9/8/17
f 6/16/18 17/9/19 9/8/20
s 1
f 30/17/21 5/18/5 2/19/22
f 13/20/2 11/21/4 27/22/23
s 0
f 11/21/24 26/23/24 27/22/25
s 1
f 13/24/2 27/25/23 28/26/26
s 0
f 18/12/27 20/11/28 9/27/29
f 7/28/30 34/25/31 33/29/31
s 1
f 7/28/6 5/5/5 34/25/32
s 0
f 8/25/33 9/27/34 20/11/33
f 19/25/35 18/30/36 10/31/37
f 10/32/38 3/33/39 19/25/39
f 3/33/40 24/25/40 19/25/40
s 1
f 6/7/7 8/34/41 5/35/5
f 9/27/42 8/34/41 6/7/7
s 0
f 21/36/43 13/25/43 28/26/43
f 1/25/44 4/25/44 20/11/45
s 1
f 4/37/46 8/38/41 20/11/47
s 0
f 24/39/48 3/33/48 10/32/49
s 1
f 25/40/50 19/13/14 24/25/51
s 0
f 5/18/52 29/25/52 35/25/52
f 22/41/53 13/24/54 21/36/53
s 1
f 22/42/55 23/43/56 13/25/2
f 32/44/57 1/45/58 20/11/12
f 1/45/58 8/38/41 4/37/46
s 0
f 30/17/59 29/25/60 5/18/61
s 1
f 14/10/62 11/4/4 12/1/1
f 30/17/21 2/46/22 31/47/63
f 17/48/64 7/6/6 16/49/65
s 0
f 18/25/66 9/8/67 10/50/68
s 1
f 17/48/64 15/51/69 14/10/62
f 13/52/2 24/25/51 10/53/3
s 0
f 16/54/70 26/23/71 15/55/72
f 11/25/73 15/55/74 26/56/75
f 22/25/76 29/25/76 30/17/76
s 1
f 32/25/57 19/13/14 25/40/50
f 33/57/77 16/49/65 7/28/6
f 5/18/5 35/25/78 34/58/32
s 0
f 29/25/79 28/26/80 35/59/79
s 1
f 23/60/56 25/44/50 24/61/51
f 1/45/58 5/62/5 8/63/41
s 0
f 28/25/81 34/58/81 35/59/81
s 1
f 2/19/22 32/25/57 31/47/63
s 0
f 34/58/82 26/23/82 33/25/82
f 31/25/83 25/40/83 23/25/83
f 31/47/84 22/64/84 30/17/84
s 1
f 14/10/62 15/55/69 11/4/4
f 17/48/64 6/65/7 7/6/6
f 17/48/64 16/54/65 15/51/69
f 13/52/2 23/43/56 24/25/51
s 0
f 16/54/85 33/25/86 26/23/86
f 22/25/87 21/66/87 29/25/87
s 1
f 32/25/57 20/11/12 19/13/14
s 0
f 29/25/88 21/66/88 28/26/89
s 1
f 1/45/58 2/19/22 5/62/5
s 0
f 28/25/90 27/67/90 34/58/90
s 1
f 2/19/22 1/45/58 32/25/57
s 0
f 34/58/91 27/25/91 26/23/91
f 31/25/92 32/25/92 25/40/92
f 31/47/93 23/25/93 22/64/93
